<?xml version="1.0" encoding="utf-8"?><svg viewBox="0 0 100 100" xmlns="http://www.w3.org/2000/svg" xmlns:xlink="http://www.w3.org/1999/xlink"><style>:root>svg{display:none}:root>svg:target{display:block}</style><svg viewBox="0 0 25 18" id="buy" xmlns="http://www.w3.org/2000/svg"><path d="M6 14a1.5 1.5 0 100-3 1.5 1.5 0 000 3z"/><path d="M21.5 0h-18a3 3 0 00-3 3v15h24V3a3 3 0 00-3-3zm-18 2h18a1 1 0 011 1v2h-20V3a1 1 0 011-1zm-1 14V7h20v9h-20z"/></svg><svg viewBox="0 0 25 16" id="cash" xmlns="http://www.w3.org/2000/svg"><path d="M21.5 0h-18a3 3 0 00-3 3v13h24V3a3 3 0 00-3-3zm1 14h-20V3a1 1 0 011-1h18a1 1 0 011 1v11zm-10-10a4 4 0 100 8 4 4 0 000-8zm0 6a2 2 0 110-4 2 2 0 010 4zm-6-5a1 1 0 11-2 0 1 1 0 012 0zm14 0a1 1 0 11-2 0 1 1 0 012 0zm-14 6a1 1 0 11-2 0 1 1 0 012 0zm14 0a1 1 0 11-2 0 1 1 0 012 0z"/></svg><svg viewBox="0 0 25 22" id="crypto" xmlns="http://www.w3.org/2000/svg"><path d="M19.7 5h3.6a1.2 1.2 0 011.2 1.2v14.4a1.2 1.2 0 01-1.2 1.2H1.7a1.2 1.2 0 01-1.2-1.2V1.4A1.2 1.2 0 011.7.2h18V5zM2.9 7.4v12h19.2v-12H2.9zm0-4.8V5h14.4V2.6H2.9zm13.2 9.6h3.6v2.4h-3.6v-2.4z"/></svg><svg viewBox="0 0 100 100" id="favicon" xmlns="http://www.w3.org/2000/svg"><rect width="100" height="100" rx="24"/><path d="M55.258 78L44.659 38.164V78H37V23h10.676l8.742 32.921V23H64v55h-8.742z"/></svg><svg viewBox="0 0 97 27" id="logo" xmlns="http://www.w3.org/2000/svg"><path d="M8.517 26.131L3.573 7.834V26.13H0V.868h4.98L9.06 15.99V.868h3.536v25.264H8.517zM19.408 4.477v7.038h5.45v3.609h-5.45v7.399h6.857v3.608H15.438V.868h10.827v3.61h-6.857zM38.974 26.131L37.532 12.67 36.087 26.13h-5.45L27.824.868h3.861l2.13 19.922L35.726.868h3.826l1.985 20.067L43.594.867h3.465l-2.815 25.264h-5.27zM54.665 26.131V.868h3.97v21.655h6.532v3.608H54.665zM66.894 26.131V.868h3.97v25.264h-3.97zM77.737 4.477v7.615h5.125v3.61h-5.125v10.43h-3.97V.867h10.502v3.61h-6.532zM90.143 4.477v7.038h5.45v3.609h-5.45v7.399H97v3.608H86.173V.868H97v3.61h-6.857z"/></svg><svg viewBox="0 0 24 30" id="play" xmlns="http://www.w3.org/2000/svg"><path d="M1.5 1.5l21 13.5-21 13.5v-27z"/></svg></svg>