<svg width="25" height="18" viewBox="0 0 25 18" fill="none" xmlns="http://www.w3.org/2000/svg">
<path d="M5.99988 14.0001C6.82831 14.0001 7.49988 13.3285 7.49988 12.5001C7.49988 11.6717 6.82831 11.0001 5.99988 11.0001C5.17145 11.0001 4.49988 11.6717 4.49988 12.5001C4.49988 13.3285 5.17145 14.0001 5.99988 14.0001Z" fill="white"/>
<path d="M21.5 0H3.5C2.70435 0 1.94129 0.316071 1.37868 0.87868C0.81607 1.44129 0.5 2.20435 0.5 3L0.5 18H24.5V3C24.5 2.20435 24.1839 1.44129 23.6213 0.87868C23.0587 0.316071 22.2956 0 21.5 0ZM3.5 2H21.5C21.7652 2 22.0196 2.10536 22.2071 2.29289C22.3946 2.48043 22.5 2.73478 22.5 3V5H2.5V3C2.5 2.73478 2.60536 2.48043 2.79289 2.29289C2.98043 2.10536 3.23478 2 3.5 2ZM2.5 16V7H22.5V16H2.5Z" fill="white"/>
</svg>
