<svg width="25" height="16" viewBox="0 0 25 16" fill="none" xmlns="http://www.w3.org/2000/svg">
<path d="M21.5 0.000244141H3.5C2.70435 0.000244141 1.94129 0.316315 1.37868 0.878924C0.81607 1.44153 0.5 2.20459 0.5 3.00024L0.5 16.0002H24.5V3.00024C24.5 2.20459 24.1839 1.44153 23.6213 0.878924C23.0587 0.316315 22.2956 0.000244141 21.5 0.000244141ZM22.5 14.0002H2.5V3.00024C2.5 2.73503 2.60536 2.48067 2.79289 2.29314C2.98043 2.1056 3.23478 2.00024 3.5 2.00024H21.5C21.7652 2.00024 22.0196 2.1056 22.2071 2.29314C22.3946 2.48067 22.5 2.73503 22.5 3.00024V14.0002ZM12.5 4.00024C11.7089 4.00024 10.9355 4.23484 10.2777 4.67437C9.61992 5.11389 9.10723 5.73861 8.80448 6.46951C8.50173 7.20041 8.42252 8.00468 8.57686 8.78061C8.7312 9.55653 9.11216 10.2693 9.67157 10.8287C10.231 11.3881 10.9437 11.769 11.7196 11.9234C12.4956 12.0777 13.2998 11.9985 14.0307 11.6958C14.7616 11.393 15.3864 10.8803 15.8259 10.2225C16.2654 9.56473 16.5 8.79137 16.5 8.00024C16.5 6.93938 16.0786 5.92196 15.3284 5.17182C14.5783 4.42167 13.5609 4.00024 12.5 4.00024ZM12.5 10.0002C12.1044 10.0002 11.7178 9.88295 11.3889 9.66318C11.06 9.44342 10.8036 9.13106 10.6522 8.76561C10.5009 8.40016 10.4613 7.99803 10.5384 7.61006C10.6156 7.2221 10.8061 6.86574 11.0858 6.58603C11.3655 6.30633 11.7219 6.11584 12.1098 6.03867C12.4978 5.9615 12.8999 6.00111 13.2654 6.15248C13.6308 6.30386 13.9432 6.56021 14.1629 6.8891C14.3827 7.218 14.5 7.60468 14.5 8.00024C14.5 8.53068 14.2893 9.03938 13.9142 9.41446C13.5391 9.78953 13.0304 10.0002 12.5 10.0002ZM6.5 5.00024C6.5 5.19803 6.44135 5.39137 6.33147 5.55581C6.22159 5.72026 6.06541 5.84844 5.88268 5.92412C5.69996 5.99981 5.49889 6.01961 5.30491 5.98103C5.11093 5.94244 4.93275 5.8472 4.79289 5.70735C4.65304 5.5675 4.5578 5.38932 4.51921 5.19533C4.48063 5.00135 4.50043 4.80029 4.57612 4.61756C4.65181 4.43483 4.77998 4.27866 4.94443 4.16877C5.10888 4.05889 5.30222 4.00024 5.5 4.00024C5.76522 4.00024 6.01957 4.1056 6.20711 4.29314C6.39464 4.48067 6.5 4.73503 6.5 5.00024ZM20.5 5.00024C20.5 5.19803 20.4414 5.39137 20.3315 5.55581C20.2216 5.72026 20.0654 5.84844 19.8827 5.92412C19.7 5.99981 19.4989 6.01961 19.3049 5.98103C19.1109 5.94244 18.9327 5.8472 18.7929 5.70735C18.653 5.5675 18.5578 5.38932 18.5192 5.19533C18.4806 5.00135 18.5004 4.80029 18.5761 4.61756C18.6518 4.43483 18.78 4.27866 18.9444 4.16877C19.1089 4.05889 19.3022 4.00024 19.5 4.00024C19.7652 4.00024 20.0196 4.1056 20.2071 4.29314C20.3946 4.48067 20.5 4.73503 20.5 5.00024ZM6.5 11.0002C6.5 11.198 6.44135 11.3914 6.33147 11.5558C6.22159 11.7203 6.06541 11.8484 5.88268 11.9241C5.69996 11.9998 5.49889 12.0196 5.30491 11.981C5.11093 11.9424 4.93275 11.8472 4.79289 11.7074C4.65304 11.5675 4.5578 11.3893 4.51921 11.1953C4.48063 11.0014 4.50043 10.8003 4.57612 10.6176C4.65181 10.4348 4.77998 10.2787 4.94443 10.1688C5.10888 10.0589 5.30222 10.0002 5.5 10.0002C5.76522 10.0002 6.01957 10.1056 6.20711 10.2931C6.39464 10.4807 6.5 10.735 6.5 11.0002ZM20.5 11.0002C20.5 11.198 20.4414 11.3914 20.3315 11.5558C20.2216 11.7203 20.0654 11.8484 19.8827 11.9241C19.7 11.9998 19.4989 12.0196 19.3049 11.981C19.1109 11.9424 18.9327 11.8472 18.7929 11.7074C18.653 11.5675 18.5578 11.3893 18.5192 11.1953C18.4806 11.0014 18.5004 10.8003 18.5761 10.6176C18.6518 10.4348 18.78 10.2787 18.9444 10.1688C19.1089 10.0589 19.3022 10.0002 19.5 10.0002C19.7652 10.0002 20.0196 10.1056 20.2071 10.2931C20.3946 10.4807 20.5 10.735 20.5 11.0002Z" fill="white"/>
</svg>
