<svg width="25" height="22" viewBox="0 0 25 22" fill="none" xmlns="http://www.w3.org/2000/svg">
<path d="M19.7 4.99995H23.3C23.6183 4.99995 23.9235 5.12638 24.1485 5.35142C24.3736 5.57647 24.5 5.88169 24.5 6.19995V20.6C24.5 20.9182 24.3736 21.2234 24.1485 21.4485C23.9235 21.6735 23.6183 21.8 23.3 21.8H1.7C1.38174 21.8 1.07652 21.6735 0.851472 21.4485C0.626428 21.2234 0.5 20.9182 0.5 20.6V1.39995C0.5 1.08169 0.626428 0.776467 0.851472 0.551423C1.07652 0.326379 1.38174 0.199951 1.7 0.199951H19.7V4.99995ZM2.9 7.39995V19.4H22.1V7.39995H2.9ZM2.9 2.59995V4.99995H17.3V2.59995H2.9ZM16.1 12.2H19.7V14.6H16.1V12.2Z" fill="white"/>
</svg>
