<svg width="97" height="27" viewBox="0 0 97 27" fill="none" xmlns="http://www.w3.org/2000/svg">
<path d="M8.51726 26.1315L3.57292 7.8338V26.1315H0V0.868408H4.98043L9.05861 15.9902V0.868408H12.5954V26.1315H8.51726Z" fill="white"/>
<path d="M19.4077 4.47742V11.515H24.8573V15.124H19.4077V22.5225H26.2648V26.1315H15.4378V0.868408H26.2648V4.47742H19.4077Z" fill="white"/>
<path d="M38.9745 26.1315L37.5309 12.6699L36.0873 26.1315H30.6377L27.8226 0.868408H31.6843L33.8136 20.7901L35.7264 0.868408H39.5519L41.5369 20.9345L43.594 0.868408H47.0587L44.2436 26.1315H38.9745Z" fill="white"/>
<path d="M54.6646 26.1315V0.868408H58.6345V22.5225H65.1668V26.1315H54.6646Z" fill="white"/>
<path d="M66.8944 26.1315V0.868408H70.8643V26.1315H66.8944Z" fill="white"/>
<path d="M77.7369 4.47742V12.0924H82.8617V15.7014H77.7369V26.1315H73.767V0.868408H84.2692V4.47742H77.7369Z" fill="white"/>
<path d="M90.1429 4.47742V11.515H95.5925V15.124H90.1429V22.5225H97V26.1315H86.173V0.868408H97V4.47742H90.1429Z" fill="white"/>
</svg>
